<svg width="284" height="143" viewBox="0 0 284 143" fill="none" xmlns="http://www.w3.org/2000/svg">
<g clip-path="url(#clip0)">
<path d="M29.73 109.65V93.04H35.54C39.76 93.04 43.43 95.94 43.43 101.38C43.43 106.81 39.71 109.65 35.49 109.65H29.73ZM35.43 107.61C38.52 107.61 41.08 105.57 41.08 101.38C41.08 97.19 38.55 95.08 35.48 95.08H32.04V107.61H35.43Z" fill="#222222"/>
<path d="M49.0699 103.2L52.1099 102.75C52.7899 102.66 52.9799 102.3 52.9799 101.91C52.9799 100.81 52.2499 99.9 50.5399 99.9C48.9699 99.9 48.1499 100.86 47.9899 102.17L45.8799 101.68C46.1399 99.53 48.0399 98.03 50.4999 98.03C53.8699 98.03 55.1899 99.97 55.1899 102.15V107.8C55.1899 108.81 55.2599 109.37 55.3299 109.65H53.1699C53.0999 109.37 53.0499 108.95 53.0499 108.13C52.5599 108.93 51.4299 110 49.4199 110C47.1199 110 45.6499 108.41 45.6499 106.63C45.6599 104.59 47.1099 103.51 49.0699 103.2ZM52.9899 104.82V104.3L49.5499 104.82C48.6099 104.98 47.9099 105.5 47.9099 106.51C47.9099 107.35 48.6099 108.15 49.7399 108.15C51.5299 108.15 52.9899 107.28 52.9899 104.82Z" fill="#222222"/>
<path d="M61.5499 98.3801H63.99V100.37H61.5499V106.23C61.5499 107.26 61.9699 107.78 63.1199 107.78C63.3999 107.78 63.8 107.76 63.99 107.69V109.56C63.8 109.63 63.24 109.77 62.49 109.77C60.55 109.77 59.3499 108.62 59.3499 106.56V100.38H57.2V98.3901H57.81C59.03 98.3901 59.54 97.6601 59.54 96.6601V94.8301H61.5499V98.3801Z" fill="#222222"/>
<path d="M69.63 103.2L72.67 102.75C73.35 102.66 73.54 102.3 73.54 101.91C73.54 100.81 72.81 99.9 71.1 99.9C69.53 99.9 68.71 100.86 68.55 102.17L66.44 101.68C66.7 99.53 68.6 98.03 71.06 98.03C74.43 98.03 75.75 99.97 75.75 102.15V107.8C75.75 108.81 75.82 109.37 75.89 109.65H73.73C73.66 109.37 73.61 108.95 73.61 108.13C73.12 108.93 71.99 110 69.98 110C67.68 110 66.21 108.41 66.21 106.63C66.21 104.59 67.67 103.51 69.63 103.2ZM73.55 104.82V104.3L70.11 104.82C69.17 104.98 68.47 105.5 68.47 106.51C68.47 107.35 69.17 108.15 70.3 108.15C72.09 108.15 73.55 107.28 73.55 104.82Z" fill="#222222"/>
<path d="M93.78 97.5401C93.59 96.3201 92.59 94.7101 90.27 94.7101C88.4 94.7101 87.06 95.9101 87.06 97.4701C87.06 98.6701 87.79 99.5801 89.19 99.8801L91.67 100.42C94.46 101.05 95.98 102.74 95.98 105.08C95.98 107.63 93.78 110 90.24 110C86.23 110 84.34 107.4 84.03 105.06L86.23 104.36C86.42 106.23 87.71 107.92 90.21 107.92C92.48 107.92 93.63 106.75 93.63 105.27C93.63 104.07 92.83 103.04 91.15 102.69L88.78 102.17C86.41 101.63 84.73 100.13 84.73 97.6201C84.73 95.0201 87.12 92.6801 90.21 92.6801C93.93 92.6801 95.46 95.0001 95.83 96.8001L93.78 97.5401Z" fill="#222222"/>
<path d="M99.98 104C99.98 106.55 101.6 107.96 103.42 107.96C105.53 107.96 106.3 106.53 106.56 105.64L108.5 106.48C107.94 108.1 106.37 109.99 103.42 109.99C100.14 109.99 97.73 107.41 97.73 103.99C97.73 100.5 100.19 98.02 103.4 98.02C106.42 98.02 107.9 99.89 108.41 101.6L106.42 102.44C106.11 101.34 105.32 100.05 103.4 100.05C101.62 100.07 99.98 101.38 99.98 104Z" fill="#222222"/>
<path d="M112.16 92.52C113.07 92.52 113.75 93.2 113.75 94.11C113.75 94.98 113.07 95.68 112.16 95.68C111.29 95.68 110.59 94.98 110.59 94.11C110.59 93.2 111.29 92.52 112.16 92.52ZM111.08 109.65V98.38H113.26V109.65H111.08V109.65Z" fill="#222222"/>
<path d="M126.82 106.44C126.21 108.41 124.36 110 121.76 110C118.74 110 116.09 107.82 116.09 103.98C116.09 100.44 118.64 98.03 121.48 98.03C124.95 98.03 126.89 100.44 126.89 103.93C126.89 104.21 126.87 104.47 126.84 104.63H118.36C118.43 106.64 119.84 108.05 121.76 108.05C123.61 108.05 124.48 107.07 124.92 105.78L126.82 106.44ZM124.59 102.85C124.52 101.23 123.49 99.97 121.5 99.97C119.67 99.97 118.5 101.42 118.43 102.85H124.59Z" fill="#222222"/>
<path d="M131.9 109.65H129.7V98.3801H131.85V100C132.67 98.5901 134.01 98.0601 135.32 98.0601C138.04 98.0601 139.35 99.9801 139.35 102.51V109.65H137.15V102.88C137.15 101.31 136.49 100.05 134.53 100.05C132.77 100.05 131.91 101.46 131.91 103.14V109.65H131.9Z" fill="#222222"/>
<path d="M144.17 104C144.17 106.55 145.79 107.96 147.61 107.96C149.72 107.96 150.49 106.53 150.75 105.64L152.69 106.48C152.13 108.1 150.56 109.99 147.61 109.99C144.33 109.99 141.92 107.41 141.92 103.99C141.92 100.5 144.38 98.02 147.59 98.02C150.61 98.02 152.09 99.89 152.6 101.6L150.61 102.44C150.3 101.34 149.51 100.05 147.59 100.05C145.8 100.07 144.17 101.38 144.17 104Z" fill="#222222"/>
<path d="M164.96 106.44C164.35 108.41 162.5 110 159.9 110C156.88 110 154.23 107.82 154.23 103.98C154.23 100.44 156.78 98.03 159.62 98.03C163.09 98.03 165.03 100.44 165.03 103.93C165.03 104.21 165.01 104.47 164.98 104.63H156.5C156.57 106.64 157.98 108.05 159.9 108.05C161.75 108.05 162.62 107.07 163.06 105.78L164.96 106.44ZM162.74 102.85C162.67 101.23 161.64 99.97 159.65 99.97C157.82 99.97 156.65 101.42 156.58 102.85H162.74Z" fill="#222222"/>
<path d="M38.73 135.54C37.35 137.06 35.94 138.02 34.07 138.02C30.93 138.02 29.27 135.91 29.27 133.78C29.27 131.65 30.47 130.45 32.2 129.14L32.44 128.95L32.13 128.62C31.36 127.8 30.14 126.56 30.14 124.92C30.14 122.23 32.36 120.77 34.43 120.77C36.94 120.77 38.83 122.32 38.83 124.82C38.83 126.44 37.68 127.63 36.49 128.5L35.65 129.13L38.74 132.34L42.44 128.22V131.24L40.19 133.84L43.96 137.73H40.84L38.73 135.54ZM37.18 134.09L37.25 134L33.88 130.46L33.04 131.09C32.22 131.72 31.63 132.45 31.63 133.6C31.63 134.72 32.59 135.92 34.09 135.92C35.38 135.92 36.27 135.1 37.18 134.09ZM33.67 127.11L34.19 127.67L35.31 126.83C36.32 126.1 36.55 125.49 36.55 124.77C36.55 123.67 35.66 122.76 34.44 122.76C33.5 122.76 32.4 123.49 32.4 124.8C32.4 125.73 33.11 126.55 33.67 127.11Z" fill="#222222"/>
<path d="M60.6701 133.11H53.3201L51.5601 137.75H49.1001L55.7101 121.14H58.3601L64.9701 137.75H62.4901L60.6701 133.11ZM54.1301 130.98H59.8501L56.9701 123.53L54.1301 130.98Z" fill="#222222"/>
<path d="M69.1399 137.74H66.9399V126.47H69.0899V128.09C69.9099 126.68 71.2499 126.15 72.5599 126.15C75.2799 126.15 76.5899 128.07 76.5899 130.6V137.74H74.3899V130.97C74.3899 129.4 73.7299 128.14 71.7699 128.14C70.0099 128.14 69.1499 129.55 69.1499 131.23V137.74H69.1399Z" fill="#222222"/>
<path d="M82.8199 131.3L85.8599 130.85C86.5399 130.76 86.7299 130.4 86.7299 130.01C86.7299 128.91 85.9999 127.99 84.2899 127.99C82.7199 127.99 81.8999 128.95 81.7399 130.26L79.6299 129.77C79.8899 127.62 81.7899 126.12 84.2499 126.12C87.6199 126.12 88.9399 128.06 88.9399 130.24V135.89C88.9399 136.9 89.0099 137.46 89.0799 137.74H86.9199C86.8499 137.46 86.7999 137.04 86.7999 136.22C86.3099 137.02 85.1799 138.09 83.1699 138.09C80.8699 138.09 79.3999 136.5 79.3999 134.72C79.3999 132.68 80.8499 131.61 82.8199 131.3ZM86.7299 132.92V132.4L83.2899 132.92C82.3499 133.08 81.6499 133.6 81.6499 134.61C81.6499 135.45 82.3499 136.25 83.4799 136.25C85.2799 136.25 86.7299 135.38 86.7299 132.92Z" fill="#222222"/>
<path d="M92.3501 137.74V120.78H94.5501V137.74H92.3501Z" fill="#222222"/>
<path d="M98.6899 142.45L101.5 136.5L96.6499 126.47H99.1799L102.69 134.25L106.06 126.47H108.43L101.1 142.45H98.6899Z" fill="#222222"/>
<path d="M113.61 126.48H116.05V128.47H113.61V134.33C113.61 135.36 114.03 135.88 115.18 135.88C115.46 135.88 115.86 135.86 116.05 135.79V137.66C115.86 137.73 115.3 137.87 114.55 137.87C112.61 137.87 111.41 136.72 111.41 134.66V128.48H109.26V126.49H109.87C111.09 126.49 111.6 125.76 111.6 124.76V122.93H113.61V126.48Z" fill="#222222"/>
<path d="M120.05 120.62C120.96 120.62 121.64 121.3 121.64 122.21C121.64 123.08 120.96 123.78 120.05 123.78C119.18 123.78 118.48 123.08 118.48 122.21C118.48 121.3 119.18 120.62 120.05 120.62ZM118.97 137.74V126.47H121.15V137.74H118.97Z" fill="#222222"/>
<path d="M126.21 132.1C126.21 134.65 127.83 136.06 129.65 136.06C131.76 136.06 132.53 134.63 132.79 133.74L134.73 134.58C134.17 136.2 132.6 138.09 129.65 138.09C126.37 138.09 123.96 135.51 123.96 132.09C123.96 128.6 126.42 126.12 129.63 126.12C132.65 126.12 134.13 127.99 134.64 129.7L132.65 130.54C132.34 129.44 131.55 128.15 129.63 128.15C127.84 128.16 126.21 129.48 126.21 132.1Z" fill="#222222"/>
<path d="M138.24 134.11C138.4 135.31 139.27 136.22 140.86 136.22C142.1 136.22 142.78 135.54 142.78 134.72C142.78 133.99 142.26 133.48 141.33 133.27L139.41 132.85C137.63 132.47 136.6 131.28 136.6 129.69C136.6 127.75 138.4 126.13 140.6 126.13C143.69 126.13 144.63 128.17 144.89 129.15L142.95 129.88C142.81 129.29 142.41 128.01 140.61 128.01C139.49 128.01 138.74 128.74 138.74 129.51C138.74 130.24 139.16 130.68 140.03 130.87L141.86 131.27C143.92 131.72 144.98 132.93 144.98 134.62C144.98 136.21 143.64 138.11 140.86 138.11C137.77 138.11 136.46 136.14 136.27 134.83L138.24 134.11Z" fill="#222222"/>
<path d="M78.82 1.16995H81.25C82.71 1.16995 83.2 1.55995 83.2 3.11995V67.4C83.2 69.54 82.52 70.32 81.35 70.32C80.38 70.32 79.6 69.74 77.75 67.4L36.06 14.32V67.4C36.06 68.96 35.57 69.35 34.11 69.35H31.67C30.21 69.35 29.72 68.96 29.72 67.4V3.11995C29.72 0.979951 30.4 0.199951 31.57 0.199951C32.54 0.199951 33.32 0.779951 35.17 3.11995L76.87 56.2V3.11995C76.87 1.55995 77.36 1.16995 78.82 1.16995Z" fill="#222222"/>
<path d="M129.69 0.189941C149.17 0.189941 164.07 15.2899 164.07 35.0599C164.07 55.0299 148.98 70.3199 129.11 70.3199C109.83 70.3199 94.9199 55.4199 94.9199 35.6499C94.9199 15.6799 110.01 0.189941 129.69 0.189941ZM129.3 64.0799C144.79 64.0799 157.45 51.6099 157.45 35.2499C157.45 18.3999 144.98 6.41994 129.5 6.41994C113.92 6.41994 101.55 18.5899 101.55 35.4399C101.54 51.8099 113.71 64.0799 129.3 64.0799Z" fill="#00CFB5"/>
<path d="M221.72 3.99003C222.79 1.75003 223.38 1.17003 225.32 1.17003H227.07C228.43 1.17003 229.02 1.56003 229.02 2.44003C229.02 2.83003 228.82 3.32003 228.53 4.00003L200 65.74C198.15 69.73 197.66 70.51 196.59 70.51C195.62 70.51 195.13 69.73 193.28 65.74L164.55 3.99003C164.26 3.31003 164.06 2.82003 164.06 2.43003C164.06 1.55003 164.64 1.16003 166.01 1.16003H168.05C170 1.16003 170.58 1.74003 171.65 3.98003L196.68 58.72L221.72 3.99003Z" fill="#222222"/>
<path d="M218.99 67.98C218.99 67.4 219.19 66.81 219.48 66.13L247.72 4.97C249.57 0.98 250.15 0 251.23 0C252.3 0 252.89 0.97 254.74 4.97L282.98 66.13C283.27 66.81 283.47 67.4 283.47 67.98C283.47 68.86 282.88 69.34 281.33 69.34H221.14C219.57 69.34 218.99 68.86 218.99 67.98ZM251.13 11.78L227.76 63.11H274.51L251.13 11.78Z" fill="#222222"/>
<path d="M4.48 30.78C7.01 30.78 8.96 32.53 8.96 35.26C8.96 37.89 7.01 39.64 4.48 39.64C2.04 39.64 0 37.89 0 35.26C0 32.53 2.04 30.78 4.48 30.78Z" fill="#00CFB5"/>
<path d="M129.49 30.78C132.02 30.78 133.97 32.53 133.97 35.26C133.97 37.89 132.02 39.64 129.49 39.64C127.05 39.64 125.01 37.89 125.01 35.26C125.01 32.53 127.06 30.78 129.49 30.78Z" fill="#222222"/>
</g>
<defs>
<clipPath id="clip0">
<rect width="283.46" height="142.45" fill="white"/>
</clipPath>
</defs>
</svg>
